{
	"asset":{
		"generator":"Khronos glTF Blender I/O v4.0.44",
		"version":"2.0"
	},
	"scene":0,
	"scenes":[
		{
			"name":"Scene",
			"nodes":[
				10,
				11
			]
		}
	],
	"nodes":[
		{
			"name":"forkr",
			"rotation":[
				-0.00107446382753551,
				0.06837749481201172,
				0.004893632605671883,
				0.9976469874382019
			],
			"translation":[
				0.03844267874956131,
				0.19277407228946686,
				0.0037070552352815866
			]
		},
		{
			"name":"forkl",
			"rotation":[
				0.0027436360251158476,
				-0.04433774948120117,
				-0.0026076664216816425,
				0.9990094304084778
			],
			"scale":[
				1,
				0.9999999403953552,
				1
			],
			"translation":[
				-0.03682493045926094,
				0.19399364292621613,
				-0.001982889836654067
			]
		},
		{
			"children":[
				0,
				1
			],
			"name":"head",
			"rotation":[
				-0.00012851142673753202,
				1.1362205754039678e-07,
				-9.714756743051112e-06,
				1
			],
			"scale":[
				1,
				0.9999999403953552,
				0.9999999403953552
			],
			"translation":[
				-1.8677059898664083e-09,
				0.4108472764492035,
				-7.069791507774426e-08
			]
		},
		{
			"children":[
				2
			],
			"name":"forearm",
			"rotation":[
				0.00021135530550964177,
				0.0001289770007133484,
				1.5953595720930025e-05,
				1
			],
			"translation":[
				1.0624390256452898e-10,
				0.6397833228111267,
				-1.0094401758919958e-08
			]
		},
		{
			"children":[
				3
			],
			"name":"upperarm",
			"rotation":[
				0.9605528712272644,
				-2.2267129679676145e-05,
				0.07244332134723663,
				0.2684963047504425
			],
			"scale":[
				1.0000001192092896,
				0.9999998807907104,
				0.9999995827674866
			],
			"translation":[
				1.3444627633418804e-09,
				0.6176265478134155,
				-1.042066202217029e-07
			]
		},
		{
			"children":[
				4
			],
			"name":"lowerarm",
			"rotation":[
				-0.6646761894226074,
				0.021788060665130615,
				-0.030708391219377518,
				0.7461822032928467
			],
			"scale":[
				1,
				0.9999999403953552,
				1
			],
			"translation":[
				2.3218704736649443e-11,
				0.3628678619861603,
				-3.721931207678608e-09
			]
		},
		{
			"children":[
				5
			],
			"name":"base.001",
			"rotation":[
				0.005335160531103611,
				-0.8394598960876465,
				-0.543384313583374,
				0.003476864192634821
			],
			"scale":[
				0.9999998807907104,
				1,
				0.9999999403953552
			],
			"translation":[
				8.163095199797965e-12,
				-1.4959626426502837e-08,
				3.207761389845132e-09
			]
		},
		{
			"children":[
				6
			],
			"name":"base",
			"rotation":[
				0.004669800866395235,
				0.7095307111740112,
				-0.0026978510431945324,
				0.7046539187431335
			],
			"scale":[
				0.9999999403953552,
				0.9999998211860657,
				0.9999998807907104
			],
			"translation":[
				0.05646291747689247,
				-0.0009792447090148926,
				2.279957778128505e-09
			]
		},
		{
			"children":[
				7
			],
			"name":"root",
			"rotation":[
				-1.6387997447964153e-07,
				-1.3776369200968475e-07,
				0.7132108807563782,
				0.7009496092796326
			],
			"scale":[
				0.9999999403953552,
				0.9999998211860657,
				1
			]
		},
		{
			"mesh":0,
			"name":"geo",
			"skin":0
		},
		{
			"children":[
				9,
				8
			],
			"name":"Armature"
		},
		{
			"name":"Circle"
		}
	],
	"materials":[
		{
			"doubleSided":true,
			"name":"Base",
			"pbrMetallicRoughness":{
				"baseColorFactor":[
					0.800000011920929,
					0.31854599714279175,
					0.11613400280475616,
					1
				],
				"metallicFactor":0,
				"roughnessFactor":0.12247448414564133
			}
		},
		{
			"doubleSided":true,
			"name":"Lower_arm",
			"pbrMetallicRoughness":{
				"baseColorFactor":[
					0.14116999506950378,
					0.21641600131988525,
					0.800000011920929,
					1
				],
				"metallicFactor":0,
				"roughnessFactor":0.5
			}
		},
		{
			"doubleSided":true,
			"name":"Upper_arm",
			"pbrMetallicRoughness":{
				"baseColorFactor":[
					0.44874298572540283,
					0.0850059986114502,
					0.18390299379825592,
					1
				],
				"metallicFactor":0,
				"roughnessFactor":0.5
			}
		},
		{
			"doubleSided":true,
			"name":"Hinge",
			"pbrMetallicRoughness":{
				"baseColorFactor":[
					0.09941399842500687,
					0.40435799956321716,
					0.10968200117349625,
					1
				],
				"metallicFactor":0,
				"roughnessFactor":0.5
			}
		},
		{
			"doubleSided":true,
			"name":"Front_arm",
			"pbrMetallicRoughness":{
				"baseColorFactor":[
					0.051511000841856,
					0.5257030129432678,
					0.800000011920929,
					1
				],
				"metallicFactor":0,
				"roughnessFactor":0.5
			}
		},
		{
			"doubleSided":true,
			"name":"Head",
			"pbrMetallicRoughness":{
				"baseColorFactor":[
					0.24208399653434753,
					0.26673200726509094,
					0.26973700523376465,
					1
				],
				"metallicFactor":0,
				"roughnessFactor":0.5
			}
		},
		{
			"doubleSided":true,
			"name":"Fork_l",
			"pbrMetallicRoughness":{
				"baseColorFactor":[
					0.5894179940223694,
					0.06973999738693237,
					0.04104999825358391,
					1
				],
				"metallicFactor":0,
				"roughnessFactor":0.5
			}
		},
		{
			"doubleSided":true,
			"name":"Fork_r",
			"pbrMetallicRoughness":{
				"baseColorFactor":[
					0.261150985956192,
					0.13589000701904297,
					0.800000011920929,
					1
				],
				"metallicFactor":0,
				"roughnessFactor":0.5
			}
		}
	],
	"meshes":[
		{
			"name":"Cylinder.001",
			"primitives":[
				{
					"attributes":{
						"POSITION":0,
						"NORMAL":1,
						"TEXCOORD_0":2,
						"JOINTS_0":3,
						"WEIGHTS_0":4
					},
					"indices":5,
					"material":0
				},
				{
					"attributes":{
						"POSITION":6,
						"NORMAL":7,
						"TEXCOORD_0":8,
						"JOINTS_0":9,
						"WEIGHTS_0":10
					},
					"indices":11,
					"material":1
				},
				{
					"attributes":{
						"POSITION":12,
						"NORMAL":13,
						"TEXCOORD_0":14,
						"JOINTS_0":15,
						"WEIGHTS_0":16
					},
					"indices":17,
					"material":2
				},
				{
					"attributes":{
						"POSITION":18,
						"NORMAL":19,
						"TEXCOORD_0":20,
						"JOINTS_0":21,
						"WEIGHTS_0":22
					},
					"indices":23,
					"material":3
				},
				{
					"attributes":{
						"POSITION":24,
						"NORMAL":25,
						"TEXCOORD_0":26,
						"JOINTS_0":27,
						"WEIGHTS_0":28
					},
					"indices":29,
					"material":4
				},
				{
					"attributes":{
						"POSITION":30,
						"NORMAL":31,
						"TEXCOORD_0":32,
						"JOINTS_0":33,
						"WEIGHTS_0":34
					},
					"indices":35,
					"material":5
				},
				{
					"attributes":{
						"POSITION":36,
						"NORMAL":37,
						"TEXCOORD_0":38,
						"JOINTS_0":39,
						"WEIGHTS_0":40
					},
					"indices":41,
					"material":6
				},
				{
					"attributes":{
						"POSITION":42,
						"NORMAL":43,
						"TEXCOORD_0":44,
						"JOINTS_0":45,
						"WEIGHTS_0":46
					},
					"indices":47,
					"material":7
				}
			]
		}
	],
	"skins":[
		{
			"inverseBindMatrices":48,
			"joints":[
				8,
				7,
				6,
				5,
				4,
				3,
				2,
				0,
				1
			],
			"name":"Armature"
		}
	],
	"accessors":[
		{
			"bufferView":0,
			"componentType":5126,
			"count":145206,
			"max":[
				0.15612997114658356,
				0.48857608437538147,
				0.15643557906150818
			],
			"min":[
				-0.2532631456851959,
				-4.6637335771038124e-08,
				-0.1555771380662918
			],
			"type":"VEC3"
		},
		{
			"bufferView":1,
			"componentType":5126,
			"count":145206,
			"type":"VEC3"
		},
		{
			"bufferView":2,
			"componentType":5126,
			"count":145206,
			"type":"VEC2"
		},
		{
			"bufferView":3,
			"componentType":5121,
			"count":145206,
			"type":"VEC4"
		},
		{
			"bufferView":4,
			"componentType":5126,
			"count":145206,
			"type":"VEC4"
		},
		{
			"bufferView":5,
			"componentType":5125,
			"count":267141,
			"type":"SCALAR"
		},
		{
			"bufferView":6,
			"componentType":5126,
			"count":136451,
			"max":[
				0.4493855834007263,
				0.7858939170837402,
				0.07999993860721588
			],
			"min":[
				-0.7528469562530518,
				0.3113890588283539,
				-0.12826773524284363
			],
			"type":"VEC3"
		},
		{
			"bufferView":7,
			"componentType":5126,
			"count":136451,
			"type":"VEC3"
		},
		{
			"bufferView":8,
			"componentType":5126,
			"count":136451,
			"type":"VEC2"
		},
		{
			"bufferView":9,
			"componentType":5121,
			"count":136451,
			"type":"VEC4"
		},
		{
			"bufferView":10,
			"componentType":5126,
			"count":136451,
			"type":"VEC4"
		},
		{
			"bufferView":11,
			"componentType":5125,
			"count":266469,
			"type":"SCALAR"
		},
		{
			"bufferView":12,
			"componentType":5126,
			"count":127,
			"max":[
				0.3995357155799866,
				0.7843566536903381,
				0.05656846985220909
			],
			"min":[
				-0.7528469562530518,
				0.7169299125671387,
				-0.06908822804689407
			],
			"type":"VEC3"
		},
		{
			"bufferView":13,
			"componentType":5126,
			"count":127,
			"type":"VEC3"
		},
		{
			"bufferView":14,
			"componentType":5126,
			"count":127,
			"type":"VEC2"
		},
		{
			"bufferView":15,
			"componentType":5121,
			"count":127,
			"type":"VEC4"
		},
		{
			"bufferView":16,
			"componentType":5126,
			"count":127,
			"type":"VEC4"
		},
		{
			"bufferView":17,
			"componentType":5123,
			"count":264,
			"type":"SCALAR"
		},
		{
			"bufferView":18,
			"componentType":5126,
			"count":786,
			"max":[
				0.3995357155799866,
				0.7858939170837402,
				0.07999993860721588
			],
			"min":[
				-0.8808875679969788,
				0.6258938312530518,
				-0.08000002801418304
			],
			"type":"VEC3"
		},
		{
			"bufferView":19,
			"componentType":5126,
			"count":786,
			"type":"VEC3"
		},
		{
			"bufferView":20,
			"componentType":5126,
			"count":786,
			"type":"VEC2"
		},
		{
			"bufferView":21,
			"componentType":5121,
			"count":786,
			"type":"VEC4"
		},
		{
			"bufferView":22,
			"componentType":5126,
			"count":786,
			"type":"VEC4"
		},
		{
			"bufferView":23,
			"componentType":5123,
			"count":1554,
			"type":"SCALAR"
		},
		{
			"bufferView":24,
			"componentType":5126,
			"count":197,
			"max":[
				0.3995357155799866,
				0.7684248089790344,
				0.06253096461296082
			],
			"min":[
				-0.8808875679969788,
				0.6433628797531128,
				-0.07043135166168213
			],
			"type":"VEC3"
		},
		{
			"bufferView":25,
			"componentType":5126,
			"count":197,
			"type":"VEC3"
		},
		{
			"bufferView":26,
			"componentType":5126,
			"count":197,
			"type":"VEC2"
		},
		{
			"bufferView":27,
			"componentType":5121,
			"count":197,
			"type":"VEC4"
		},
		{
			"bufferView":28,
			"componentType":5126,
			"count":197,
			"type":"VEC4"
		},
		{
			"bufferView":29,
			"componentType":5123,
			"count":576,
			"type":"SCALAR"
		},
		{
			"bufferView":30,
			"componentType":5126,
			"count":1937,
			"max":[
				0.45521146059036255,
				0.7858939170837402,
				0.07999993860721588
			],
			"min":[
				-1.1046092510223389,
				0.3113890588283539,
				-0.08000004291534424
			],
			"type":"VEC3"
		},
		{
			"bufferView":31,
			"componentType":5126,
			"count":1937,
			"type":"VEC3"
		},
		{
			"bufferView":32,
			"componentType":5126,
			"count":1937,
			"type":"VEC2"
		},
		{
			"bufferView":33,
			"componentType":5121,
			"count":1937,
			"type":"VEC4"
		},
		{
			"bufferView":34,
			"componentType":5126,
			"count":1937,
			"type":"VEC4"
		},
		{
			"bufferView":35,
			"componentType":5123,
			"count":3480,
			"type":"SCALAR"
		},
		{
			"bufferView":36,
			"componentType":5126,
			"count":35,
			"max":[
				-0.2200813889503479,
				0.7843567728996277,
				0.02227596566081047
			],
			"min":[
				-0.7372397780418396,
				0.6585227847099304,
				-0.022276051342487335
			],
			"type":"VEC3"
		},
		{
			"bufferView":37,
			"componentType":5126,
			"count":35,
			"type":"VEC3"
		},
		{
			"bufferView":38,
			"componentType":5126,
			"count":35,
			"type":"VEC2"
		},
		{
			"bufferView":39,
			"componentType":5121,
			"count":35,
			"type":"VEC4"
		},
		{
			"bufferView":40,
			"componentType":5126,
			"count":35,
			"type":"VEC4"
		},
		{
			"bufferView":41,
			"componentType":5123,
			"count":60,
			"type":"SCALAR"
		},
		{
			"bufferView":42,
			"componentType":5126,
			"count":35,
			"max":[
				-0.2200813889503479,
				0.7532650828361511,
				0.02227596566081047
			],
			"min":[
				-0.7376148700714111,
				0.6585227847099304,
				-0.022276051342487335
			],
			"type":"VEC3"
		},
		{
			"bufferView":43,
			"componentType":5126,
			"count":35,
			"type":"VEC3"
		},
		{
			"bufferView":44,
			"componentType":5126,
			"count":35,
			"type":"VEC2"
		},
		{
			"bufferView":45,
			"componentType":5121,
			"count":35,
			"type":"VEC4"
		},
		{
			"bufferView":46,
			"componentType":5126,
			"count":35,
			"type":"VEC4"
		},
		{
			"bufferView":47,
			"componentType":5123,
			"count":60,
			"type":"SCALAR"
		},
		{
			"bufferView":48,
			"componentType":5126,
			"count":9,
			"type":"MAT4"
		}
	],
	"bufferViews":[
		{
			"buffer":0,
			"byteLength":1742472,
			"byteOffset":0,
			"target":34962
		},
		{
			"buffer":0,
			"byteLength":1742472,
			"byteOffset":1742472,
			"target":34962
		},
		{
			"buffer":0,
			"byteLength":1161648,
			"byteOffset":3484944,
			"target":34962
		},
		{
			"buffer":0,
			"byteLength":580824,
			"byteOffset":4646592,
			"target":34962
		},
		{
			"buffer":0,
			"byteLength":2323296,
			"byteOffset":5227416,
			"target":34962
		},
		{
			"buffer":0,
			"byteLength":1068564,
			"byteOffset":7550712,
			"target":34963
		},
		{
			"buffer":0,
			"byteLength":1637412,
			"byteOffset":8619276,
			"target":34962
		},
		{
			"buffer":0,
			"byteLength":1637412,
			"byteOffset":10256688,
			"target":34962
		},
		{
			"buffer":0,
			"byteLength":1091608,
			"byteOffset":11894100,
			"target":34962
		},
		{
			"buffer":0,
			"byteLength":545804,
			"byteOffset":12985708,
			"target":34962
		},
		{
			"buffer":0,
			"byteLength":2183216,
			"byteOffset":13531512,
			"target":34962
		},
		{
			"buffer":0,
			"byteLength":1065876,
			"byteOffset":15714728,
			"target":34963
		},
		{
			"buffer":0,
			"byteLength":1524,
			"byteOffset":16780604,
			"target":34962
		},
		{
			"buffer":0,
			"byteLength":1524,
			"byteOffset":16782128,
			"target":34962
		},
		{
			"buffer":0,
			"byteLength":1016,
			"byteOffset":16783652,
			"target":34962
		},
		{
			"buffer":0,
			"byteLength":508,
			"byteOffset":16784668,
			"target":34962
		},
		{
			"buffer":0,
			"byteLength":2032,
			"byteOffset":16785176,
			"target":34962
		},
		{
			"buffer":0,
			"byteLength":528,
			"byteOffset":16787208,
			"target":34963
		},
		{
			"buffer":0,
			"byteLength":9432,
			"byteOffset":16787736,
			"target":34962
		},
		{
			"buffer":0,
			"byteLength":9432,
			"byteOffset":16797168,
			"target":34962
		},
		{
			"buffer":0,
			"byteLength":6288,
			"byteOffset":16806600,
			"target":34962
		},
		{
			"buffer":0,
			"byteLength":3144,
			"byteOffset":16812888,
			"target":34962
		},
		{
			"buffer":0,
			"byteLength":12576,
			"byteOffset":16816032,
			"target":34962
		},
		{
			"buffer":0,
			"byteLength":3108,
			"byteOffset":16828608,
			"target":34963
		},
		{
			"buffer":0,
			"byteLength":2364,
			"byteOffset":16831716,
			"target":34962
		},
		{
			"buffer":0,
			"byteLength":2364,
			"byteOffset":16834080,
			"target":34962
		},
		{
			"buffer":0,
			"byteLength":1576,
			"byteOffset":16836444,
			"target":34962
		},
		{
			"buffer":0,
			"byteLength":788,
			"byteOffset":16838020,
			"target":34962
		},
		{
			"buffer":0,
			"byteLength":3152,
			"byteOffset":16838808,
			"target":34962
		},
		{
			"buffer":0,
			"byteLength":1152,
			"byteOffset":16841960,
			"target":34963
		},
		{
			"buffer":0,
			"byteLength":23244,
			"byteOffset":16843112,
			"target":34962
		},
		{
			"buffer":0,
			"byteLength":23244,
			"byteOffset":16866356,
			"target":34962
		},
		{
			"buffer":0,
			"byteLength":15496,
			"byteOffset":16889600,
			"target":34962
		},
		{
			"buffer":0,
			"byteLength":7748,
			"byteOffset":16905096,
			"target":34962
		},
		{
			"buffer":0,
			"byteLength":30992,
			"byteOffset":16912844,
			"target":34962
		},
		{
			"buffer":0,
			"byteLength":6960,
			"byteOffset":16943836,
			"target":34963
		},
		{
			"buffer":0,
			"byteLength":420,
			"byteOffset":16950796,
			"target":34962
		},
		{
			"buffer":0,
			"byteLength":420,
			"byteOffset":16951216,
			"target":34962
		},
		{
			"buffer":0,
			"byteLength":280,
			"byteOffset":16951636,
			"target":34962
		},
		{
			"buffer":0,
			"byteLength":140,
			"byteOffset":16951916,
			"target":34962
		},
		{
			"buffer":0,
			"byteLength":560,
			"byteOffset":16952056,
			"target":34962
		},
		{
			"buffer":0,
			"byteLength":120,
			"byteOffset":16952616,
			"target":34963
		},
		{
			"buffer":0,
			"byteLength":420,
			"byteOffset":16952736,
			"target":34962
		},
		{
			"buffer":0,
			"byteLength":420,
			"byteOffset":16953156,
			"target":34962
		},
		{
			"buffer":0,
			"byteLength":280,
			"byteOffset":16953576,
			"target":34962
		},
		{
			"buffer":0,
			"byteLength":140,
			"byteOffset":16953856,
			"target":34962
		},
		{
			"buffer":0,
			"byteLength":560,
			"byteOffset":16953996,
			"target":34962
		},
		{
			"buffer":0,
			"byteLength":120,
			"byteOffset":16954556,
			"target":34963
		},
		{
			"buffer":0,
			"byteLength":576,
			"byteOffset":16954676
		}
	],
	"buffers":[
		{
			"byteLength":16955252,
			"uri":"Robot_Arms.bin"
		}
	]
}
